<?xml version="1.0" encoding="utf-8"?>
<!-- Generator: Adobe Illustrator 22.1.0, SVG Export Plug-In . SVG Version: 6.00 Build 0)  -->
<svg version="1.1" id="Layer_1" xmlns="http://www.w3.org/2000/svg" xmlns:xlink="http://www.w3.org/1999/xlink" x="0px" y="0px"
	 viewBox="0 0 546 178" style="enable-background:new 0 0 546 178;" xml:space="preserve">
<style type="text/css">
	.st0{fill:#D0B681;}
	.st1{fill:#1B3F67;}
</style>
<g>
	<g>
		<g>
			<g>
				<rect x="160.9" y="81" class="st0" width="4.2" height="71"/>
				<rect x="153.8" y="81" class="st0" width="4.2" height="71"/>
			</g>
			<polygon class="st0" points="167.8,147.3 151.1,147.3 148.2,147.3 150.9,152.1 151.1,152.1 167.8,152.1 168,152.1 170.7,147.3 
							"/>
			<polygon class="st0" points="136.6,76.9 139.4,81.7 139.5,81.7 179.4,81.7 179.5,81.7 182.2,76.9 			"/>
			<polygon class="st0" points="187.7,59.6 192.2,59.6 179.6,81.7 175.1,81.7 			"/>
			<g>
				<polygon class="st0" points="169.5,26.9 149.1,26.9 146.4,31.7 172.2,31.7 				"/>
				<polygon class="st0" points="126.4,59.6 130.8,59.6 146.4,31.7 141.9,31.7 				"/>
				<polygon class="st0" points="144.6,26.9 141.9,31.7 146.4,31.7 149.1,26.9 				"/>
				<polygon class="st0" points="187.7,59.6 192.2,59.6 176.6,31.7 172.2,31.7 				"/>
				<polygon class="st0" points="176.6,31.7 173.9,26.9 169.5,26.9 172.2,31.7 				"/>
			</g>
			<polygon class="st0" points="176.2,30.9 171.8,30.9 187.7,59.6 192.2,59.6 			"/>
			<g>
				<polygon class="st0" points="148.3,61.4 146.1,65.3 146.4,65.9 154,79.2 158.5,79.2 150.5,65.3 159.4,49.7 157.2,45.8 				"/>
				<polygon class="st0" points="170.6,61.4 161.7,45.8 159.4,49.7 168.4,65.3 160.4,79.2 164.9,79.2 172.5,65.9 172.8,65.3 				"/>
				<polygon class="st0" points="160.5,43.7 158.4,43.7 157.2,45.8 159.4,49.7 161.7,45.8 				"/>
			</g>
			<polygon class="st0" points="130.8,59.6 126.4,59.6 139,81.7 143.5,81.7 			"/>
			<g>
				<polygon class="st0" points="140.3,38.3 150.1,38.3 157.6,51.2 155.4,55.1 147.9,42.2 138,42.2 				"/>
				<polygon class="st0" points="178.6,38.3 168.8,38.3 161.3,51.2 163.5,55.1 171,42.2 180.9,42.2 				"/>
			</g>
			<g>
				<rect x="158.2" y="49.7" class="st0" width="2.4" height="14.8"/>
				<rect x="158.2" y="66.8" class="st0" width="2.4" height="2.4"/>
			</g>
			<g>
				<g>
					<rect x="137.8" y="42" class="st0" width="2.4" height="14.8"/>
					<rect x="145.5" y="42" class="st0" width="2.4" height="12"/>
					<rect x="137.8" y="59.1" class="st0" width="2.4" height="2.4"/>
					<rect x="145.5" y="56.4" class="st0" width="2.4" height="2.4"/>
				</g>
				<g>
					<rect x="178.7" y="42" class="st0" width="2.4" height="14.8"/>
					<rect x="171" y="42" class="st0" width="2.4" height="12"/>
					<rect x="178.7" y="59.1" class="st0" width="2.4" height="2.4"/>
					<rect x="171" y="56.4" class="st0" width="2.4" height="2.4"/>
				</g>
			</g>
		</g>
		<g>
			<g>
				<rect x="133.1" y="110.5" class="st0" width="4.2" height="5.7"/>
				<rect x="141.5" y="107.6" class="st0" width="4.2" height="13.4"/>
				<polygon class="st0" points="145.7,103.4 133.2,110.5 133.2,115 145.7,107.8 				"/>
				<polygon class="st0" points="137,123.1 137,127.5 145.7,122.6 145.7,118.1 				"/>
				<polygon class="st0" points="134.8,123 137,123 137,126.8 132.6,126.8 				"/>
				<polygon class="st0" points="131.2,123 129,126.8 131.7,126.8 133.9,123 				"/>
				<rect x="121.8" y="115.4" class="st0" width="15.5" height="3.9"/>
			</g>
			<g>
				<polygon class="st0" points="120.9,82.1 111.1,82.1 103.6,95 105.8,98.9 113.3,85.9 123.2,85.9 				"/>
				<polygon class="st0" points="98.6,86.3 106.2,73.1 125.8,73.1 135.6,90.1 135.5,90.4 133.3,94.2 128,103.3 125.8,107.1 
					125.8,107.1 123.5,103.3 123.6,103.3 125.8,99.5 131,90.4 131.2,90.1 126.5,82.1 123.6,77 108.4,77 100.8,90.1 				"/>
				<polygon class="st0" points="123,121 118.5,121 131.1,143.2 135.6,143.2 				"/>
				<polygon class="st0" points="100.4,99.6 95.9,99.6 116.3,135.5 120.7,135.5 				"/>
				<polygon class="st0" points="65.2,99.6 69.7,99.6 44.9,143.1 40.4,143.1 				"/>
				<g>
					<polygon class="st0" points="113.4,95.2 108.4,103.8 110.6,107.7 115.6,99 					"/>
				</g>
				<g>
					<polygon class="st0" points="118.5,103.9 113.5,112.6 115.7,116.5 120.7,107.7 					"/>
				</g>
				<g>
					<polygon class="st0" points="34.9,134.3 32,139.3 34.3,143.1 37.1,138.1 					"/>
				</g>
				<polygon class="st0" points="118.4,94.9 126,108.1 118.5,121 120.7,124.9 130.5,108.1 120.6,91 116,91 118.3,94.9 				"/>
				<rect x="132.8" y="138.9" class="st0" width="5.7" height="4.2"/>
				<rect x="128.5" y="147.8" class="st0" width="13.4" height="4.2"/>
				<polygon class="st0" points="146.1,152.1 138.6,138.9 134.1,138.9 141.6,152.1 				"/>
				<polygon class="st0" points="126,142.8 121.6,142.8 126.9,152.1 131.3,152.1 				"/>
				<polygon class="st0" points="121.1,142.8 124.8,142.8 124.8,146.6 118.9,146.6 				"/>
				<polygon class="st0" points="118.5,138.9 116.3,142.8 121.1,142.8 123.4,138.9 				"/>
				<polygon class="st0" points="95.5,125.9 90.6,134.2 95.5,134.2 100.4,125.9 				"/>
				<polygon class="st0" points="115.3,135.5 113.3,138.9 118.7,138.9 120.7,135.5 				"/>
				<polygon class="st0" points="95.3,108.6 91.6,102 87.1,102 93,112.6 				"/>
				<polygon class="st0" points="98.2,113.4 95.9,117.4 98.1,121.3 100.4,117.4 				"/>
				<polygon class="st0" points="61.5,123.9 59.2,127.9 61.5,131.8 63.7,127.9 				"/>
				<polygon class="st0" points="98.2,139.2 95.9,143.2 100.8,152.1 103.1,148.1 				"/>
				<polygon class="st0" points="52.8,139.2 50.5,143.2 55.4,152.1 57.7,148.1 				"/>
				<polygon class="st0" points="103.1,121.9 100.8,125.9 103,129.9 105.3,125.9 				"/>
				<rect x="65.6" y="99.6" class="st0" width="33" height="3.9"/>
				<rect x="34.3" y="139.3" class="st0" width="10.3" height="3.9"/>
				<rect x="95.9" y="125.9" class="st0" width="7.1" height="4"/>
				<polygon class="st0" points="100.8,134.5 98.4,138.5 103.2,138.5 105.7,134.5 				"/>
				<polygon class="st0" points="82.9,112.6 80.6,116.4 85.5,124.8 77.3,139.2 68,139.2 70.5,143.2 79.8,143.2 79.8,143.2 80,143.2 
					90.2,125.3 				"/>
				<polygon class="st0" points="108.3,130.5 106.1,134.5 108.3,138.5 110.6,134.5 				"/>
				<rect x="101.2" y="134.5" class="st0" width="7.1" height="4"/>
				<polygon class="st0" points="87.5,139.2 85.2,143.2 95.9,143.2 98.2,139.2 				"/>
				<polygon class="st0" points="57.7,148.1 55.4,152.1 100.8,152.1 103.1,148.1 				"/>
				<polygon class="st0" points="32,148.1 29.8,152.1 49.8,152.1 52.1,148.1 				"/>
				<path class="st0" d="M42.5,104.5l-3-5.3l-0.2-0.4l-2-3.5h-4.5l2.2,3.9l-3,5.2l-2.2,3.9l2.2,3.9l3,5.3l-10.8,18.9l-1.7,3l2.1,3.7
					l5.1,8.9h4.5l-7.2-12.6L38.2,120l1.4-2.4l3.8-6.7l1.4-2.5L42.5,104.5z M37.3,113.7l-3-5.3l3-5.2l3,5.3L37.3,113.7z"/>
				<polygon class="st0" points="57,131.5 45.4,152.1 49.9,152.1 59.2,135.5 				"/>
			</g>
		</g>
		<g>
			<g>
				<polygon class="st0" points="197.6,82.1 207.5,82.1 215,95 212.7,98.9 205.3,85.9 195.4,85.9 				"/>
				<polygon class="st0" points="195.6,121 200.1,121 187.4,143.2 183,143.2 				"/>
				<polygon class="st0" points="218.2,99.6 222.7,99.6 202.3,135.5 197.8,135.5 				"/>
				<g>
					<polygon class="st0" points="205.2,95.2 210.2,103.8 208,107.7 203,99 					"/>
				</g>
				<g>
					<polygon class="st0" points="200.1,103.9 205.1,112.6 202.9,116.5 197.8,107.7 					"/>
				</g>
				<polygon class="st0" points="180.3,85.6 178.1,89.5 182.9,97.8 185.2,93.9 				"/>
				<polygon class="st0" points="174.2,96.4 178.8,104.3 181,100.5 176.4,92.5 				"/>
				<polygon class="st0" points="200.2,94.9 192.6,108.1 200.1,121 197.8,124.9 188.1,108.1 198,91 202.5,91 200.3,94.9 				"/>
				<rect x="180" y="138.9" class="st0" width="5.7" height="4.2"/>
				<rect x="176.7" y="147.8" class="st0" width="13.4" height="4.2"/>
				<polygon class="st0" points="172.5,152.1 180,138.9 184.5,138.9 177,152.1 				"/>
				<polygon class="st0" points="192.5,142.8 197,142.8 191.7,152.1 187.3,152.1 				"/>
				<rect x="181" y="110.5" class="st0" width="4.2" height="5.7"/>
				<rect x="172.7" y="107.6" class="st0" width="4.2" height="13.4"/>
				<polygon class="st0" points="172.7,103.4 185.2,110.5 185.2,115 172.7,107.8 				"/>
				<polygon class="st0" points="181.3,123.1 181.3,127.5 172.7,122.6 172.7,118.1 				"/>
				<polygon class="st0" points="197.5,142.8 193.8,142.8 193.8,146.6 199.7,146.6 				"/>
				<polygon class="st0" points="183.6,123 181.3,123 181.3,126.8 185.7,126.8 				"/>
				<polygon class="st0" points="200.1,138.9 202.3,142.8 197.5,142.8 195.2,138.9 				"/>
				<polygon class="st0" points="187.1,123 189.3,126.8 186.6,126.8 184.5,123 				"/>
				<polygon class="st0" points="223.1,125.9 228,134.2 223.1,134.2 218.2,125.9 				"/>
				<polygon class="st0" points="203.3,135.5 205.3,138.9 199.9,138.9 197.8,135.5 				"/>
				<polygon class="st0" points="223.3,108.6 227,102 231.4,102 225.5,112.6 				"/>
				<polygon class="st0" points="220.4,113.4 222.7,117.4 220.5,121.3 218.2,117.4 				"/>
				<polygon class="st0" points="215.5,121.9 217.8,125.9 215.6,129.9 213.3,125.9 				"/>
				<rect x="220" y="99.6" class="st0" width="33" height="3.9"/>
				<rect x="181" y="115.4" class="st0" width="15.5" height="3.9"/>
				<rect x="178.7" y="100.5" class="st0" width="8.5" height="3.9"/>
				<rect x="215.6" y="125.9" class="st0" width="7.1" height="4"/>
				<polygon class="st0" points="217.8,134.5 220.2,138.5 215.4,138.5 212.9,134.5 				"/>
				<polygon class="st0" points="210.2,130.5 212.5,134.5 210.3,138.5 208,134.5 				"/>
				<rect x="210.3" y="134.5" class="st0" width="7.1" height="4"/>
				<polygon class="st0" points="192.1,98.9 189.7,94.7 187.5,98.6 189.9,102.8 191.5,105.6 191.6,105.6 193.8,101.7 193.7,101.7 
									"/>
				<polygon class="st0" points="184.5,87.3 187,83.1 189.2,87 186.8,91.2 185.1,94 185.1,94 182.9,90.1 182.9,90.1 				"/>
				<polygon class="st0" points="186.6,97.7 189,93.5 191.2,97.4 188.8,101.6 187.2,104.3 187.1,104.3 184.9,100.5 184.9,100.5 				
					"/>
				<polygon class="st0" points="212.4,73.1 192.8,73.1 186.1,84.7 188.8,87.7 192.1,82.1 195,77 210.2,77 221.6,96.1 223.8,92.2 
									"/>
			</g>
			<g>
				<polygon class="st0" points="253.3,99.6 248.9,99.6 273.7,143.1 278.2,143.1 				"/>
				<g>
					<polygon class="st0" points="283.7,134.3 286.5,139.3 284.3,143.1 281.4,138.1 					"/>
				</g>
				<polygon class="st0" points="257,123.9 259.3,127.9 257.1,131.8 254.8,127.9 				"/>
				<polygon class="st0" points="220.4,139.2 222.7,143.2 217.8,152.1 215.5,148.1 				"/>
				<polygon class="st0" points="265.8,139.2 268.1,143.2 263.2,152.1 260.9,148.1 				"/>
				<rect x="273.9" y="139.3" class="st0" width="10.3" height="3.9"/>
				<polygon class="st0" points="235.7,112.6 237.9,116.4 233.1,124.8 241.3,139.2 250.5,139.2 248.1,143.2 238.7,143.2 
					238.7,143.2 238.6,143.2 228.4,125.3 				"/>
				<polygon class="st0" points="231.1,139.2 233.4,143.2 222.7,143.2 220.4,139.2 				"/>
				<polygon class="st0" points="260.9,148.1 263.2,152.1 217.8,152.1 215.5,148.1 				"/>
				<polygon class="st0" points="286.5,148.1 288.8,152.1 268.8,152.1 266.5,148.1 				"/>
				<path class="st0" d="M273.8,108.5l1.4,2.5l3.8,6.7l1.4,2.4l11.1,19.5l-7.2,12.6h4.5l5.1-8.9l2.1-3.7l-1.7-3l-10.8-18.9l3-5.3
					l2.2-3.9l-2.2-3.9l-3-5.2l2.2-3.9h-4.5l-2,3.5l-0.2,0.4l-3,5.3L273.8,108.5z M278.3,108.5l3-5.3l3,5.2l-3,5.3L278.3,108.5z"/>
				<polygon class="st0" points="261.5,131.5 273.2,152.1 268.7,152.1 259.3,135.5 				"/>
			</g>
		</g>
	</g>
	<g>
		<g>
			<path class="st1" d="M369,40c-1.9-1.9-4.1-3.5-6.7-4.6c-2.6-1.1-5.5-1.8-8.8-2.2l0,0c-0.6,0-1.2-0.1-1.9-0.1
				c-0.7-0.1-1.6-0.1-2.7-0.1c-1.1,0-2.4,0-4-0.1c-1.6,0-3.7-0.1-6-0.1h-21.6V37l0.7,0.2c2.7,0.8,4.7,1.9,6.1,3.2
				c1.3,1.3,2,3.2,2,5.8l-0.1,62.7l10,0.1l-0.1-29c3,0,5.7,0,8-0.1c2.7,0,5.2-0.2,7.4-0.4c2.3-0.2,4.4-0.5,6.3-0.9
				c1.9-0.4,3.8-1,5.6-1.8c2.2-1,4-2.2,5.5-3.6c1.5-1.4,2.7-3.1,3.6-4.9c0.9-1.8,1.6-3.7,2-5.7c0.4-2,0.6-4.1,0.6-6.2
				c0-3.6-0.5-6.7-1.5-9.5C372.3,44.3,370.9,41.9,369,40z M364.7,55.6c0,2.4-0.4,4.7-1.1,6.7c-0.7,2-1.8,3.7-3.1,5.1
				c-1.3,1.4-2.8,2.5-4.5,3.2c-1.7,0.8-3.5,1.1-5.4,1.1h-14.8V40.3h14.8c1.9,0,3.8,0.3,5.5,1c1.7,0.6,3.2,1.6,4.5,2.9
				c1.3,1.3,2.3,2.9,3,4.8C364.3,50.8,364.7,53.1,364.7,55.6z"/>
			<path class="st1" d="M441.3,32.8h-10.4l-33.5,33.4V32.5H378V37l0.8,0.2c1.1,0.3,2.1,0.5,2.8,0.8c0.7,0.3,1.3,0.5,1.7,0.8
				c0.4,0.3,0.8,0.6,1.1,0.9c0.3,0.3,0.6,0.6,0.9,0.9c0.4,0.5,0.7,1.2,1,2c0.3,0.8,0.5,2,0.5,3.6v63.2h10.8V75.5l29.6,33.9h14.8
				l-36-41L441.3,32.8z"/>
			<path class="st1" d="M505.9,32.9l-18.3,56.5l-18-56.5h-24.1v4.5l0.8,0.2c1.1,0.3,2,0.5,2.8,0.8c0.7,0.3,1.3,0.6,1.7,0.8
				c0.4,0.3,0.8,0.6,1.1,0.9c0.3,0.3,0.6,0.7,0.9,0.9c0.4,0.4,0.8,1.1,1,1.9c0.3,0.8,0.4,2,0.4,3.6v62.4h0.2v0.2h9.9V47.9l18.6,55.4
				h9.6l18.6-55.4v61.2h9.9V32.9H505.9z"/>
		</g>
		<g>
			<path class="st1" d="M324.4,145.6c0-3.7,2.7-6.5,6.4-6.5c2.9,0,5.1,1.7,5.9,4.2h-1.6c-0.7-1.9-2.4-2.9-4.3-2.9
				c-2.8,0-4.9,2.2-4.9,5.1c0,3,2.2,5.1,4.9,5.1c1.9,0,3.7-1,4.3-2.9h1.6c-0.8,2.6-3,4.2-5.9,4.2
				C327.2,152.1,324.4,149.3,324.4,145.6z"/>
			<path class="st1" d="M339.5,145.6c0-3.7,2.8-6.5,6.5-6.5c3.7,0,6.5,2.8,6.5,6.5c0,3.7-2.8,6.5-6.5,6.5
				C342.2,152.1,339.5,149.3,339.5,145.6z M350.9,145.6c0-2.9-2.1-5.1-5-5.1c-2.9,0-5,2.2-5,5.1c0,3,2.1,5.1,5,5.1
				C348.8,150.7,350.9,148.5,350.9,145.6z"/>
			<path class="st1" d="M356,139.3h1.5l6.6,10h0.1v-10h1.4v12.5H364l-6.5-10h-0.1v10H356V139.3z"/>
			<path class="st1" d="M369.1,148.1h1.5c0,1.5,1.2,2.6,3.1,2.6c1.6,0,2.8-0.8,2.8-2.1c0-3.9-6.9-1.2-6.9-6.2c0-1.8,1.5-3.3,4-3.3
				c1.9,0,4.1,1,4.1,3.6h-1.5c0-1.4-0.9-2.3-2.6-2.3c-1.8,0-2.5,1-2.5,2c0,3.4,6.9,1,6.9,6.1c0,2-1.6,3.5-4.4,3.5
				C371.1,152.1,369.1,150.4,369.1,148.1z"/>
			<path class="st1" d="M381.3,147.3v-8h1.5v8c0,2.1,1.1,3.4,3.2,3.4c2.1,0,3.2-1.3,3.2-3.4v-8h1.4v8c0,2.8-1.7,4.7-4.7,4.7
				C383,152.1,381.3,150.2,381.3,147.3z"/>
			<path class="st1" d="M394.9,139.3h1.5v11.2h5.4v1.3h-6.9V139.3z"/>
			<path class="st1" d="M405.8,140.6H402v-1.3h9.1v1.3h-3.8v11.2h-1.5V140.6z"/>
			<path class="st1" d="M414.3,139.3h1.5v12.5h-1.5V139.3z"/>
			<path class="st1" d="M420.2,139.3h1.5l6.6,10h0.1v-10h1.4v12.5h-1.5l-6.5-10h-0.1v10h-1.5V139.3z"/>
			<path class="st1" d="M433.4,145.6c0-3.7,2.7-6.5,6.4-6.5c2.9,0,5.1,1.7,5.9,4.1h-1.6c-0.7-1.6-2.2-2.7-4.3-2.7
				c-3,0-4.9,2.2-4.9,5.1c0,3,2,5.1,5,5.1c2.6,0,4.6-1.7,4.7-4.2h-5.1v-1.3h6.7c0,4.5-2.9,6.8-6.3,6.8
				C436.1,152.1,433.4,149.3,433.4,145.6z"/>
			<path class="st1" d="M454.8,145.6c0-3.7,2.7-6.5,6.4-6.5c2.9,0,5.1,1.7,5.9,4.1h-1.6c-0.7-1.6-2.2-2.7-4.3-2.7
				c-3,0-4.9,2.2-4.9,5.1c0,3,2,5.1,5,5.1c2.6,0,4.6-1.7,4.7-4.2h-5.1v-1.3h6.7c0,4.5-2.9,6.8-6.3,6.8
				C457.5,152.1,454.8,149.3,454.8,145.6z"/>
			<path class="st1" d="M471.1,139.3h4.2c2.6,0,4.1,1.5,4.1,3.7c0,1.8-1.2,3.2-2.6,3.6l2.9,5.2h-1.7l-2.8-5.1h-2.7v5.1h-1.5V139.3z
				 M475.4,145.5c1.5,0,2.6-0.8,2.6-2.5c0-1.3-0.9-2.4-2.7-2.4h-2.7v4.9H475.4z"/>
			<path class="st1" d="M482.4,145.6c0-3.7,2.8-6.5,6.5-6.5c3.7,0,6.5,2.8,6.5,6.5c0,3.7-2.8,6.5-6.5,6.5
				C485.1,152.1,482.4,149.3,482.4,145.6z M493.8,145.6c0-2.9-2.1-5.1-5-5.1c-2.9,0-5,2.2-5,5.1c0,3,2.1,5.1,5,5.1
				C491.7,150.7,493.8,148.5,493.8,145.6z"/>
			<path class="st1" d="M498.7,147.3v-8h1.5v8c0,2.1,1.1,3.4,3.2,3.4c2.1,0,3.2-1.3,3.2-3.4v-8h1.4v8c0,2.8-1.7,4.7-4.7,4.7
				C500.4,152.1,498.7,150.2,498.7,147.3z"/>
			<path class="st1" d="M512.4,139.3h4.5c2.3,0,3.8,1.5,3.8,3.8c0,2.3-1.6,3.8-3.8,3.8h-3v5h-1.5V139.3z M516.7,145.6
				c1.5,0,2.5-1.1,2.5-2.5c0-1.4-1-2.5-2.5-2.5h-2.9v5H516.7z"/>
		</g>
		<rect x="323.2" y="122.3" class="st0" width="199.5" height="5.7"/>
	</g>
</g>
</svg>
