<svg aria-hidden="true" data-prefix="fad" data-icon="plus-circle" class="svg-inline--fa fa-plus-circle fa-w-16" xmlns="http://www.w3.org/2000/svg" viewBox="0 0 512 512">
    <g class="fa-group">
        <path class="fa-secondary" fill="#ffffff" d="M256 8C119 8 8 119 8 256s111 248 248 248 248-111 248-248S393 8 256 8zm144 276a12 12 0 0 1-12 12h-92v92a12 12 0 0 1-12 12h-56a12 12 0 0 1-12-12v-92h-92a12 12 0 0 1-12-12v-56a12 12 0 0 1 12-12h92v-92a12 12 0 0 1 12-12h56a12 12 0 0 1 12 12v92h92a12 12 0 0 1 12 12z" opacity=".4"/>
        <path class="fa-primary" fill="#ffffff" d="M400 284a12 12 0 0 1-12 12h-92v92a12 12 0 0 1-12 12h-56a12 12 0 0 1-12-12v-92h-92a12 12 0 0 1-12-12v-56a12 12 0 0 1 12-12h92v-92a12 12 0 0 1 12-12h56a12 12 0 0 1 12 12v92h92a12 12 0 0 1 12 12z"/>
    </g>
</svg>
