<svg aria-hidden="true" data-prefix="fad" data-icon="chart-bar" class="svg-inline--fa fa-chart-bar fa-w-16" xmlns="http://www.w3.org/2000/svg" viewBox="0 0 512 512">
    <g class="fa-group">
        <path class="fa-secondary" fill="#8aa3b7" d="M512 400v32a16 16 0 0 1-16 16H32a32 32 0 0 1-32-32V80a16 16 0 0 1 16-16h32a16 16 0 0 1 16 16v304h432a16 16 0 0 1 16 16z" opacity=".4"/>
        <path class="fa-primary" fill="#8aa3b7" d="M275.2 96h-38.4c-6.4 0-12.8 6.4-12.8 12.8v198.4c0 6.4 6.4 12.8 12.8 12.8h38.4c6.4 0 12.8-6.4 12.8-12.8V108.8c0-6.4-6.4-12.8-12.8-12.8zm-96 128h-38.4c-6.4 0-12.8 6.4-12.8 12.8v70.4c0 6.4 6.4 12.8 12.8 12.8h38.4c6.4 0 12.8-6.4 12.8-12.8v-70.4c0-6.4-6.4-12.8-12.8-12.8zm288-160h-38.4c-6.4 0-12.8 6.4-12.8 12.8v230.4c0 6.4 6.4 12.8 12.8 12.8h38.4c6.4 0 12.8-6.4 12.8-12.8V76.8c0-6.4-6.4-12.8-12.8-12.8zm-96 96h-38.4c-6.4 0-12.8 6.4-12.8 12.8v134.4c0 6.4 6.4 12.8 12.8 12.8h38.4c6.4 0 12.8-6.4 12.8-12.8V172.8c0-6.4-6.4-12.8-12.8-12.8z"/>
    </g>
</svg>
