<svg xmlns="http://www.w3.org/2000/svg" viewBox="0 0 448 512">
<!--! Font Awesome Pro 6.0.0 by @fontawesome - https://fontawesome.com License - https://fontawesome.com/license (Commercial License) Copyright 2022 Fonticons, Inc.-->
    <path class="fa-primary" fill="#8aa3b7" d="M384 0H64C28.65 0 0 28.65 0 64v64h448V64c0-35.35-28.7-64-64-64zM208 400h-96c-8.8 0-16 7.2-16 16 0 8.836 7.164 16 16 16h96c8.836 0 16-7.164 16-16 0-8.8-7.2-16-16-16zm128-192H112c-8.8 0-16 7.2-16 16 0 8.836 7.164 16 16 16h224c8.8 0 16-7.2 16-16s-7.2-16-16-16zm0 96H112c-8.8 0-16 7.2-16 16 0 8.836 7.164 16 16 16h224c8.836 0 16-7.164 16-16 0-8.8-7.2-16-16-16z"/>
    <path fill="#8aa3b7" d="M0 128v320c0 35.35 28.65 64 64 64h320c35.35 0 64-28.65 64-64V128H0zm208 304h-96c-8.8 0-16-7.2-16-16 0-8.838 7.164-16 16-16h96c8.836 0 16 7.162 16 16 0 8.8-7.2 16-16 16zm128-96H112c-8.8 0-16-7.2-16-16 0-8.838 7.164-16 16-16h224c8.836 0 16 7.162 16 16 0 8.8-7.2 16-16 16zm0-96H112c-8.8 0-16-7.2-16-16 0-8.838 7.164-16 16-16h224c8.8 0 16 7.2 16 16s-7.2 16-16 16z" style="opacity:.4"/>
</svg>
